# xmcd
#
# Track frame offsets:
#	150
#	22182
#	42059
#	59975
#	79056
#	94989
#	108281
#	127717
#	145750
#	162460
#	179550
#	198843
#	227869
#
# Disc length: 4058 seconds
#
# Revision: 1
# Processed by: cddbd v1.5.2PL0 Copyright (c) Steve Scherf et al.
# Submitted via: audiograbber 1.83.01
#
DISCID=b30fd80d
DTITLE=Taylor Swift - Top Country Gal Vol. 1
DYEAR=2008
DGENRE=Karaoke
TTITLE0=Change
TTITLE1=Cold As You
TTITLE2=Fearless (Acoustic)
TTITLE3=Love Story
TTITLE4=Our Song
TTITLE5=Picture To Burn
TTITLE6=Should've Said No
TTITLE7=Stay Beautiful
TTITLE8=Teardrops On My Guitar
TTITLE9=The Outside
TTITLE10=Tied Together With A Smile
TTITLE11=Tim McGraw
TTITLE12=Data Track
EXTD=
EXTT0=
EXTT1=
EXTT2=
EXTT3=
EXTT4=
EXTT5=
EXTT6=
EXTT7=
EXTT8=
EXTT9=
EXTT10=
EXTT11=
EXTT12=
PLAYORDER=
